<svg height="64" viewBox="0 0 64 64" width="64" xmlns="http://www.w3.org/2000/svg"><g fill="none" fill-rule="evenodd"><path d="m46 50v-12h-32v12c0 1.6568542 7.163444 3 16 3s16-1.3431458 16-3z" fill="#595959"/><path d="m6 37.907 24.718-8.907 24.302 8.907-24.302 7.394z" fill="#868686"/><path d="m19.967 37.792-.383-1.963-7.584 2.547v16.72h2v-15.073z" fill="#f1be27" fill-rule="nonzero"/><path d="m13.983 58.361.831 1.604 1.776-.919-2.611-5.044-1.955.021-2.611 5.045 1.776.919.794-1.535-.002 3.539 2 .002z" fill="#22ba8e" fill-rule="nonzero"/><circle cx="47" cy="18" fill="#22ba8e" r="12"/><g fill="#fff" fill-rule="nonzero"><path d="m46 9v18h2v-18z"/><path d="m38 19h18v-2h-18z"/></g></g></svg>